<?xml version="1.0" standalone="no"?>
<!DOCTYPE svg PUBLIC "-//W3C//DTD SVG 20010904//EN"
 "http://www.w3.org/TR/2001/REC-SVG-20010904/DTD/svg10.dtd">
<svg version="1.0" xmlns="http://www.w3.org/2000/svg"
 width="87.000000pt" height="87.000000pt" viewBox="0 0 87.000000 87.000000"
 preserveAspectRatio="xMidYMid meet">
<metadata>
Created by potrace 1.11, written by Peter Selinger 2001-2013
</metadata>
<g transform="translate(0.000000,87.000000) scale(0.100000,-0.100000)"
fill="#000000" stroke="none">
<path d="M253 788 c-89 -45 -165 -89 -169 -97 -7 -18 -48 -187 -59 -246 -5
-22 -10 -47 -12 -55 -14 -57 -10 -81 19 -122 17 -24 34 -45 37 -48 3 -3 31
-39 63 -80 31 -41 68 -88 82 -105 l26 -30 177 -3 c98 -2 188 0 200 3 21 5 211
235 242 292 12 23 11 37 -4 107 -9 45 -18 88 -20 96 -2 8 -9 38 -15 65 -6 28
-13 59 -16 70 -13 65 -23 73 -179 150 -84 41 -165 77 -181 80 -22 4 -67 -14
-191 -77z"/>
</g>
</svg>
